# MagicaVoxel @ Ephtracy

# group
o 

# material
mtllib pistol1.mtl
usemtl palette

# normals
vn -1 0 0
vn 1 0 0
vn 0 0 1
vn 0 0 -1
vn 0 -1 0
vn 0 1 0

# texcoords
vt 0.982422 0.5
vt 0.986328 0.5

# verts
v -0.4 0.3 0.1
v -0.4 0.3 0
v -0.4 0.4 0.1
v -0.4 0.4 0
v -0.3 0.3 0.2
v -0.3 0.3 0.1
v -0.3 0.3 0
v -0.3 0.3 -0.1
v -0.3 0.4 0.2
v -0.3 0.4 0.1
v -0.3 0.4 0
v -0.3 0.4 -0.1
v -0.3 0.5 0.1
v -0.3 0.5 0
v 0 0.2 0.1
v 0 0.2 0
v 0 0.3 0.1
v 0 0.3 0
v 0.1 0.2 0.2
v 0.1 0.2 0.1
v 0.1 0.2 0
v 0.1 0.2 -0.1
v 0.1 0.3 0.2
v 0.1 0.3 0.1
v 0.1 0.3 0
v 0.1 0.3 -0.1
v 0.2 0 0.1
v 0.2 0 0
v 0.2 0.1 0.2
v 0.2 0.1 0.1
v 0.2 0.1 0
v 0.2 0.1 -0.1
v 0.2 0.2 0.2
v 0.2 0.2 -0.1
v 0.2 0.4 0.2
v 0.2 0.4 0.1
v 0.2 0.4 0
v 0.2 0.4 -0.1
v 0.2 0.5 0.2
v 0.2 0.5 0.1
v 0.2 0.5 0
v 0.2 0.5 -0.1
v -0.2 0.4 0.1
v -0.2 0.4 0
v -0.2 0.5 0.1
v -0.2 0.5 0
v 0.3 0 0.1
v 0.3 0 0
v 0.3 0.1 0.2
v 0.3 0.1 0.1
v 0.3 0.1 0
v 0.3 0.1 -0.1
v 0.3 0.4 0.2
v 0.3 0.4 0.1
v 0.3 0.4 0
v 0.3 0.4 -0.1
v 0.3 0.5 0.2
v 0.3 0.5 0.1
v 0.3 0.5 0
v 0.3 0.5 -0.1
v -0.3 0.3 0.2
v -0.3 0.4 0.2
v 0.1 0.2 0.2
v 0.1 0.3 0.2
v 0.2 0.1 0.2
v 0.2 0.2 0.2
v 0.2 0.4 0.2
v 0.2 0.5 0.2
v 0.3 0.1 0.2
v 0.3 0.4 0.2
v 0.3 0.5 0.2
v -0.4 0.3 0.1
v -0.4 0.4 0.1
v -0.3 0.3 0.1
v -0.3 0.4 0.1
v -0.3 0.5 0.1
v -0.2 0.4 0.1
v -0.2 0.5 0.1
v 0 0.2 0.1
v 0 0.3 0.1
v 0.1 0.2 0.1
v 0.1 0.3 0.1
v 0.2 0 0.1
v 0.2 0.1 0.1
v 0.3 0 0.1
v 0.3 0.1 0.1
v 0.2 0.4 0
v 0.2 0.5 0
v 0.3 0.4 0
v 0.3 0.5 0
v 0.2 0.4 0.1
v 0.2 0.5 0.1
v 0.3 0.4 0.1
v 0.3 0.5 0.1
v -0.4 0.3 0
v -0.4 0.4 0
v -0.3 0.3 0
v -0.3 0.4 0
v -0.3 0.5 0
v -0.2 0.4 0
v -0.2 0.5 0
v 0 0.2 0
v 0 0.3 0
v 0.1 0.2 0
v 0.1 0.3 0
v 0.2 0 0
v 0.2 0.1 0
v 0.3 0 0
v 0.3 0.1 0
v -0.3 0.3 -0.1
v -0.3 0.4 -0.1
v 0.1 0.2 -0.1
v 0.1 0.3 -0.1
v 0.2 0.1 -0.1
v 0.2 0.2 -0.1
v 0.2 0.4 -0.1
v 0.2 0.5 -0.1
v 0.3 0.1 -0.1
v 0.3 0.4 -0.1
v 0.3 0.5 -0.1
v 0.2 0 0.1
v 0.3 0 0.1
v 0.2 0 0
v 0.3 0 0
v 0.2 0.1 0.2
v 0.3 0.1 0.2
v 0.2 0.1 0.1
v 0.3 0.1 0.1
v 0.2 0.1 0
v 0.3 0.1 0
v 0.2 0.1 -0.1
v 0.3 0.1 -0.1
v 0.1 0.2 0.2
v 0.2 0.2 0.2
v 0 0.2 0.1
v 0.1 0.2 0.1
v 0 0.2 0
v 0.1 0.2 0
v 0.1 0.2 -0.1
v 0.2 0.2 -0.1
v -0.3 0.3 0.2
v 0.1 0.3 0.2
v -0.4 0.3 0.1
v -0.3 0.3 0.1
v -0.1 0.3 0.1
v 0 0.3 0.1
v 0.1 0.3 0.1
v -0.4 0.3 0
v -0.3 0.3 0
v -0.1 0.3 0
v 0 0.3 0
v 0.1 0.3 0
v -0.3 0.3 -0.1
v 0.1 0.3 -0.1
v -0.3 0.4 0.2
v 0.2 0.4 0.2
v -0.4 0.4 0.1
v -0.3 0.4 0.1
v -0.2 0.4 0.1
v -0.1 0.4 0.1
v 0 0.4 0.1
v 0.2 0.4 0.1
v 0.3 0.4 0.1
v -0.4 0.4 0
v -0.3 0.4 0
v -0.2 0.4 0
v -0.1 0.4 0
v 0 0.4 0
v 0.2 0.4 0
v 0.3 0.4 0
v -0.3 0.4 -0.1
v 0.2 0.4 -0.1
v 0.2 0.5 0.2
v 0.3 0.5 0.2
v -0.3 0.5 0.1
v -0.2 0.5 0.1
v 0.2 0.5 0.1
v 0.3 0.5 0.1
v -0.3 0.5 0
v -0.2 0.5 0
v 0.2 0.5 0
v 0.3 0.5 0
v 0.2 0.5 -0.1
v 0.3 0.5 -0.1

# faces
f 3/1/1 2/1/1 1/1/1
f 4/1/1 2/1/1 3/1/1
f 9/2/1 6/2/1 5/2/1
f 10/2/1 6/2/1 9/2/1
f 11/2/1 8/2/1 7/2/1
f 12/2/1 8/2/1 11/2/1
f 13/1/1 11/1/1 10/1/1
f 14/1/1 11/1/1 13/1/1
f 17/1/1 16/1/1 15/1/1
f 18/1/1 16/1/1 17/1/1
f 23/2/1 20/2/1 19/2/1
f 24/2/1 20/2/1 23/2/1
f 25/2/1 22/2/1 21/2/1
f 26/2/1 22/2/1 25/2/1
f 30/2/1 28/2/1 27/2/1
f 31/2/1 28/2/1 30/2/1
f 33/2/1 30/2/1 29/2/1
f 33/2/1 32/2/1 31/2/1
f 33/2/1 31/2/1 30/2/1
f 34/2/1 32/2/1 33/2/1
f 39/1/1 36/1/1 35/1/1
f 40/1/1 36/1/1 39/1/1
f 41/1/1 38/1/1 37/1/1
f 42/1/1 38/1/1 41/1/1
f 43/1/2 44/1/2 45/1/2
f 45/1/2 44/1/2 46/1/2
f 47/2/2 48/2/2 50/2/2
f 50/2/2 48/2/2 51/2/2
f 49/2/2 50/2/2 53/2/2
f 51/2/2 52/2/2 53/2/2
f 50/2/2 51/2/2 53/2/2
f 53/2/2 52/2/2 54/2/2
f 54/2/2 52/2/2 55/2/2
f 55/2/2 52/2/2 56/2/2
f 53/1/2 54/1/2 57/1/2
f 57/1/2 54/1/2 58/1/2
f 55/1/2 56/1/2 59/1/2
f 59/1/2 56/1/2 60/1/2
f 64/2/3 62/2/3 61/2/3
f 66/2/3 64/2/3 63/2/3
f 67/2/3 62/2/3 64/2/3
f 67/2/3 64/2/3 66/2/3
f 69/2/3 66/2/3 65/2/3
f 69/2/3 67/2/3 66/2/3
f 70/1/3 68/1/3 67/1/3
f 70/2/3 67/2/3 69/2/3
f 71/1/3 68/1/3 70/1/3
f 74/1/3 73/1/3 72/1/3
f 75/1/3 73/1/3 74/1/3
f 77/1/3 76/1/3 75/1/3
f 78/1/3 76/1/3 77/1/3
f 81/1/3 80/1/3 79/1/3
f 82/1/3 80/1/3 81/1/3
f 85/2/3 84/2/3 83/2/3
f 86/2/3 84/2/3 85/2/3
f 89/1/3 88/1/3 87/1/3
f 90/1/3 88/1/3 89/1/3
f 91/1/4 92/1/4 93/1/4
f 93/1/4 92/1/4 94/1/4
f 95/1/4 96/1/4 97/1/4
f 97/1/4 96/1/4 98/1/4
f 98/1/4 99/1/4 100/1/4
f 100/1/4 99/1/4 101/1/4
f 102/1/4 103/1/4 104/1/4
f 104/1/4 103/1/4 105/1/4
f 106/2/4 107/2/4 108/2/4
f 108/2/4 107/2/4 109/2/4
f 110/2/4 111/2/4 113/2/4
f 112/2/4 113/2/4 115/2/4
f 113/2/4 111/2/4 116/2/4
f 115/2/4 113/2/4 116/2/4
f 114/2/4 115/2/4 118/2/4
f 115/2/4 116/2/4 118/2/4
f 116/1/4 117/1/4 119/1/4
f 118/2/4 116/2/4 119/2/4
f 119/1/4 117/1/4 120/1/4
f 123/2/5 122/2/5 121/2/5
f 124/2/5 122/2/5 123/2/5
f 127/2/5 126/2/5 125/2/5
f 128/2/5 126/2/5 127/2/5
f 131/2/5 130/2/5 129/2/5
f 132/2/5 130/2/5 131/2/5
f 136/2/5 134/2/5 133/2/5
f 137/1/5 136/1/5 135/1/5
f 138/2/5 134/2/5 136/2/5
f 138/1/5 136/1/5 137/1/5
f 139/2/5 134/2/5 138/2/5
f 140/2/5 134/2/5 139/2/5
f 144/2/5 142/2/5 141/2/5
f 145/2/5 142/2/5 144/2/5
f 146/2/5 142/2/5 145/2/5
f 147/2/5 142/2/5 146/2/5
f 148/1/5 144/1/5 143/1/5
f 148/1/5 145/1/5 144/1/5
f 149/1/5 145/1/5 148/1/5
f 150/2/5 146/2/5 145/2/5
f 150/1/5 145/1/5 149/1/5
f 151/2/5 146/2/5 150/2/5
f 153/2/5 152/2/5 151/2/5
f 153/2/5 151/2/5 150/2/5
f 153/2/5 150/2/5 149/2/5
f 154/2/5 152/2/5 153/2/5
f 155/2/6 156/2/6 158/2/6
f 158/2/6 156/2/6 159/2/6
f 159/2/6 156/2/6 160/2/6
f 160/2/6 156/2/6 161/2/6
f 161/2/6 156/2/6 162/2/6
f 157/1/6 158/1/6 164/1/6
f 164/1/6 158/1/6 165/1/6
f 159/1/6 160/1/6 166/1/6
f 160/2/6 161/2/6 167/2/6
f 166/1/6 160/1/6 167/1/6
f 161/1/6 162/1/6 168/1/6
f 167/2/6 161/2/6 168/2/6
f 162/2/6 163/2/6 169/2/6
f 168/1/6 162/1/6 169/1/6
f 169/2/6 163/2/6 170/2/6
f 167/2/6 168/2/6 171/2/6
f 166/2/6 167/2/6 171/2/6
f 168/2/6 169/2/6 171/2/6
f 165/2/6 166/2/6 171/2/6
f 171/2/6 169/2/6 172/2/6
f 173/1/6 174/1/6 177/1/6
f 177/1/6 174/1/6 178/1/6
f 175/1/6 176/1/6 179/1/6
f 179/1/6 176/1/6 180/1/6
f 181/1/6 182/1/6 183/1/6
f 183/1/6 182/1/6 184/1/6
