# MagicaVoxel @ Ephtracy

# group
o 

# material
mtllib teleport_ball1.mtl
usemtl palette

# normals
vn -1 0 0
vn 1 0 0
vn 0 0 1
vn 0 0 -1
vn 0 -1 0
vn 0 1 0

# texcoords
vt 0.970703 0.5
vt 0.978516 0.5

# verts
v -0.7 0.2 0.1
v -0.7 0.2 0
v -0.7 0.3 0.2
v -0.7 0.3 0.1
v -0.7 0.3 0
v -0.7 0.3 -0.1
v -0.7 0.4 0.2
v -0.7 0.4 0.1
v -0.7 0.4 0
v -0.7 0.4 -0.1
v -0.7 0.5 0.1
v -0.7 0.5 0
v -0.6 0.1 0.1
v -0.6 0.1 0
v -0.6 0.2 0.2
v -0.6 0.2 0.1
v -0.6 0.2 0
v -0.6 0.2 -0.1
v -0.6 0.3 0.3
v -0.6 0.3 0.2
v -0.6 0.3 0.1
v -0.6 0.3 0
v -0.6 0.3 -0.1
v -0.6 0.3 -0.2
v -0.6 0.4 0.3
v -0.6 0.4 0.2
v -0.6 0.4 0.1
v -0.6 0.4 0
v -0.6 0.4 -0.1
v -0.6 0.4 -0.2
v -0.6 0.5 0.2
v -0.6 0.5 0.1
v -0.6 0.5 0
v -0.6 0.5 -0.1
v -0.6 0.6 0.1
v -0.6 0.6 0
v -0.5 0.1 0.2
v -0.5 0.1 0.1
v -0.5 0.1 0
v -0.5 0.1 -0.1
v -0.5 0.2 0.3
v -0.5 0.2 0.2
v -0.5 0.2 0.1
v -0.5 0.2 0
v -0.5 0.2 -0.1
v -0.5 0.2 -0.2
v -0.5 0.3 0.3
v -0.5 0.3 0.2
v -0.5 0.3 -0.1
v -0.5 0.3 -0.2
v -0.5 0.4 0.3
v -0.5 0.4 0.2
v -0.5 0.4 -0.1
v -0.5 0.4 -0.2
v -0.5 0.5 0.3
v -0.5 0.5 0.2
v -0.5 0.5 0.1
v -0.5 0.5 0
v -0.5 0.5 -0.1
v -0.5 0.5 -0.2
v -0.5 0.6 0.2
v -0.5 0.6 0.1
v -0.5 0.6 0
v -0.5 0.6 -0.1
v -0.4 0.1 0.2
v -0.4 0.1 0.1
v -0.4 0.1 0
v -0.4 0.1 -0.1
v -0.4 0.2 0.3
v -0.4 0.2 0.2
v -0.4 0.2 0.1
v -0.4 0.2 0
v -0.4 0.2 -0.1
v -0.4 0.2 -0.2
v -0.4 0.3 0.3
v -0.4 0.3 0.2
v -0.4 0.3 -0.1
v -0.4 0.3 -0.2
v -0.4 0.4 0.3
v -0.4 0.4 0.2
v -0.4 0.4 -0.1
v -0.4 0.4 -0.2
v -0.4 0.5 0.3
v -0.4 0.5 0.2
v -0.4 0.5 0.1
v -0.4 0.5 0
v -0.4 0.5 -0.1
v -0.4 0.5 -0.2
v -0.4 0.6 0.2
v -0.4 0.6 0.1
v -0.4 0.6 0
v -0.4 0.6 -0.1
v -0.3 0.1 0.1
v -0.3 0.1 0
v -0.3 0.2 0.2
v -0.3 0.2 0.1
v -0.3 0.2 0
v -0.3 0.2 -0.1
v -0.3 0.3 0.3
v -0.3 0.3 0.2
v -0.3 0.3 0.1
v -0.3 0.3 0
v -0.3 0.3 -0.1
v -0.3 0.3 -0.2
v -0.3 0.4 0.3
v -0.3 0.4 0.2
v -0.3 0.4 0.1
v -0.3 0.4 0
v -0.3 0.4 -0.1
v -0.3 0.4 -0.2
v -0.3 0.5 0.2
v -0.3 0.5 0.1
v -0.3 0.5 0
v -0.3 0.5 -0.1
v -0.3 0.6 0.1
v -0.3 0.6 0
v -0.2 0.2 0.1
v -0.2 0.2 0
v -0.2 0.3 0.2
v -0.2 0.3 0.1
v -0.2 0.3 0
v -0.2 0.3 -0.1
v -0.2 0.4 0.2
v -0.2 0.4 0.1
v -0.2 0.4 0
v -0.2 0.4 -0.1
v -0.2 0.5 0.1
v -0.2 0.5 0
v -0.6 0.3 0.3
v -0.6 0.4 0.3
v -0.5 0.2 0.3
v -0.5 0.3 0.3
v -0.5 0.4 0.3
v -0.5 0.5 0.3
v -0.4 0.2 0.3
v -0.4 0.3 0.3
v -0.4 0.4 0.3
v -0.4 0.5 0.3
v -0.3 0.3 0.3
v -0.3 0.4 0.3
v -0.7 0.3 0.2
v -0.7 0.4 0.2
v -0.6 0.2 0.2
v -0.6 0.3 0.2
v -0.6 0.4 0.2
v -0.6 0.5 0.2
v -0.5 0.1 0.2
v -0.5 0.2 0.2
v -0.5 0.3 0.2
v -0.5 0.4 0.2
v -0.5 0.5 0.2
v -0.5 0.6 0.2
v -0.4 0.1 0.2
v -0.4 0.2 0.2
v -0.4 0.3 0.2
v -0.4 0.4 0.2
v -0.4 0.5 0.2
v -0.4 0.6 0.2
v -0.3 0.2 0.2
v -0.3 0.3 0.2
v -0.3 0.4 0.2
v -0.3 0.5 0.2
v -0.2 0.3 0.2
v -0.2 0.4 0.2
v -0.7 0.2 0.1
v -0.7 0.3 0.1
v -0.7 0.4 0.1
v -0.7 0.5 0.1
v -0.6 0.1 0.1
v -0.6 0.2 0.1
v -0.6 0.3 0.1
v -0.6 0.4 0.1
v -0.6 0.5 0.1
v -0.6 0.6 0.1
v -0.5 0.1 0.1
v -0.5 0.2 0.1
v -0.5 0.5 0.1
v -0.5 0.6 0.1
v -0.4 0.1 0.1
v -0.4 0.2 0.1
v -0.4 0.5 0.1
v -0.4 0.6 0.1
v -0.3 0.1 0.1
v -0.3 0.2 0.1
v -0.3 0.3 0.1
v -0.3 0.4 0.1
v -0.3 0.5 0.1
v -0.3 0.6 0.1
v -0.2 0.2 0.1
v -0.2 0.3 0.1
v -0.2 0.4 0.1
v -0.2 0.5 0.1
v -0.7 0.2 0
v -0.7 0.3 0
v -0.7 0.4 0
v -0.7 0.5 0
v -0.6 0.1 0
v -0.6 0.2 0
v -0.6 0.3 0
v -0.6 0.4 0
v -0.6 0.5 0
v -0.6 0.6 0
v -0.5 0.1 0
v -0.5 0.2 0
v -0.5 0.5 0
v -0.5 0.6 0
v -0.4 0.1 0
v -0.4 0.2 0
v -0.4 0.5 0
v -0.4 0.6 0
v -0.3 0.1 0
v -0.3 0.2 0
v -0.3 0.3 0
v -0.3 0.4 0
v -0.3 0.5 0
v -0.3 0.6 0
v -0.2 0.2 0
v -0.2 0.3 0
v -0.2 0.4 0
v -0.2 0.5 0
v -0.7 0.3 -0.1
v -0.7 0.4 -0.1
v -0.6 0.2 -0.1
v -0.6 0.3 -0.1
v -0.6 0.4 -0.1
v -0.6 0.5 -0.1
v -0.5 0.1 -0.1
v -0.5 0.2 -0.1
v -0.5 0.3 -0.1
v -0.5 0.4 -0.1
v -0.5 0.5 -0.1
v -0.5 0.6 -0.1
v -0.4 0.1 -0.1
v -0.4 0.2 -0.1
v -0.4 0.3 -0.1
v -0.4 0.4 -0.1
v -0.4 0.5 -0.1
v -0.4 0.6 -0.1
v -0.3 0.2 -0.1
v -0.3 0.3 -0.1
v -0.3 0.4 -0.1
v -0.3 0.5 -0.1
v -0.2 0.3 -0.1
v -0.2 0.4 -0.1
v -0.6 0.3 -0.2
v -0.6 0.4 -0.2
v -0.5 0.2 -0.2
v -0.5 0.3 -0.2
v -0.5 0.4 -0.2
v -0.5 0.5 -0.2
v -0.4 0.2 -0.2
v -0.4 0.3 -0.2
v -0.4 0.4 -0.2
v -0.4 0.5 -0.2
v -0.3 0.3 -0.2
v -0.3 0.4 -0.2
v -0.5 0.1 0.2
v -0.4 0.1 0.2
v -0.6 0.1 0.1
v -0.5 0.1 0.1
v -0.4 0.1 0.1
v -0.3 0.1 0.1
v -0.6 0.1 0
v -0.5 0.1 0
v -0.4 0.1 0
v -0.3 0.1 0
v -0.5 0.1 -0.1
v -0.4 0.1 -0.1
v -0.5 0.2 0.3
v -0.4 0.2 0.3
v -0.6 0.2 0.2
v -0.5 0.2 0.2
v -0.4 0.2 0.2
v -0.3 0.2 0.2
v -0.7 0.2 0.1
v -0.6 0.2 0.1
v -0.5 0.2 0.1
v -0.4 0.2 0.1
v -0.3 0.2 0.1
v -0.2 0.2 0.1
v -0.7 0.2 0
v -0.6 0.2 0
v -0.5 0.2 0
v -0.4 0.2 0
v -0.3 0.2 0
v -0.2 0.2 0
v -0.6 0.2 -0.1
v -0.5 0.2 -0.1
v -0.4 0.2 -0.1
v -0.3 0.2 -0.1
v -0.5 0.2 -0.2
v -0.4 0.2 -0.2
v -0.6 0.3 0.3
v -0.5 0.3 0.3
v -0.4 0.3 0.3
v -0.3 0.3 0.3
v -0.7 0.3 0.2
v -0.6 0.3 0.2
v -0.5 0.3 0.2
v -0.4 0.3 0.2
v -0.3 0.3 0.2
v -0.2 0.3 0.2
v -0.7 0.3 0.1
v -0.6 0.3 0.1
v -0.3 0.3 0.1
v -0.2 0.3 0.1
v -0.7 0.3 0
v -0.6 0.3 0
v -0.3 0.3 0
v -0.2 0.3 0
v -0.7 0.3 -0.1
v -0.6 0.3 -0.1
v -0.5 0.3 -0.1
v -0.4 0.3 -0.1
v -0.3 0.3 -0.1
v -0.2 0.3 -0.1
v -0.6 0.3 -0.2
v -0.5 0.3 -0.2
v -0.4 0.3 -0.2
v -0.3 0.3 -0.2
v -0.6 0.4 0.3
v -0.5 0.4 0.3
v -0.4 0.4 0.3
v -0.3 0.4 0.3
v -0.7 0.4 0.2
v -0.6 0.4 0.2
v -0.5 0.4 0.2
v -0.4 0.4 0.2
v -0.3 0.4 0.2
v -0.2 0.4 0.2
v -0.7 0.4 0.1
v -0.6 0.4 0.1
v -0.3 0.4 0.1
v -0.2 0.4 0.1
v -0.7 0.4 0
v -0.6 0.4 0
v -0.3 0.4 0
v -0.2 0.4 0
v -0.7 0.4 -0.1
v -0.6 0.4 -0.1
v -0.5 0.4 -0.1
v -0.4 0.4 -0.1
v -0.3 0.4 -0.1
v -0.2 0.4 -0.1
v -0.6 0.4 -0.2
v -0.5 0.4 -0.2
v -0.4 0.4 -0.2
v -0.3 0.4 -0.2
v -0.5 0.5 0.3
v -0.4 0.5 0.3
v -0.6 0.5 0.2
v -0.5 0.5 0.2
v -0.4 0.5 0.2
v -0.3 0.5 0.2
v -0.7 0.5 0.1
v -0.6 0.5 0.1
v -0.5 0.5 0.1
v -0.4 0.5 0.1
v -0.3 0.5 0.1
v -0.2 0.5 0.1
v -0.7 0.5 0
v -0.6 0.5 0
v -0.5 0.5 0
v -0.4 0.5 0
v -0.3 0.5 0
v -0.2 0.5 0
v -0.6 0.5 -0.1
v -0.5 0.5 -0.1
v -0.4 0.5 -0.1
v -0.3 0.5 -0.1
v -0.5 0.5 -0.2
v -0.4 0.5 -0.2
v -0.5 0.6 0.2
v -0.4 0.6 0.2
v -0.6 0.6 0.1
v -0.5 0.6 0.1
v -0.4 0.6 0.1
v -0.3 0.6 0.1
v -0.6 0.6 0
v -0.5 0.6 0
v -0.4 0.6 0
v -0.3 0.6 0
v -0.5 0.6 -0.1
v -0.4 0.6 -0.1

# faces
f 4/1/1 2/1/1 1/1/1
f 5/1/1 2/1/1 4/1/1
f 7/1/1 4/1/1 3/1/1
f 8/2/1 5/2/1 4/2/1
f 8/1/1 4/1/1 7/1/1
f 9/1/1 6/1/1 5/1/1
f 9/2/1 5/2/1 8/2/1
f 10/1/1 6/1/1 9/1/1
f 11/1/1 9/1/1 8/1/1
f 12/1/1 9/1/1 11/1/1
f 16/1/1 14/1/1 13/1/1
f 17/1/1 14/1/1 16/1/1
f 20/2/1 16/2/1 15/2/1
f 21/2/1 16/2/1 20/2/1
f 22/2/1 18/2/1 17/2/1
f 23/2/1 18/2/1 22/2/1
f 25/1/1 20/1/1 19/1/1
f 26/1/1 20/1/1 25/1/1
f 29/1/1 24/1/1 23/1/1
f 30/1/1 24/1/1 29/1/1
f 31/2/1 27/2/1 26/2/1
f 32/2/1 27/2/1 31/2/1
f 33/2/1 29/2/1 28/2/1
f 34/2/1 29/2/1 33/2/1
f 35/1/1 33/1/1 32/1/1
f 36/1/1 33/1/1 35/1/1
f 42/1/1 38/1/1 37/1/1
f 43/1/1 38/1/1 42/1/1
f 44/1/1 40/1/1 39/1/1
f 45/1/1 40/1/1 44/1/1
f 47/1/1 42/1/1 41/1/1
f 48/1/1 42/1/1 47/1/1
f 49/1/1 46/1/1 45/1/1
f 50/1/1 46/1/1 49/1/1
f 55/1/1 52/1/1 51/1/1
f 56/1/1 52/1/1 55/1/1
f 59/1/1 54/1/1 53/1/1
f 60/1/1 54/1/1 59/1/1
f 61/1/1 57/1/1 56/1/1
f 62/1/1 57/1/1 61/1/1
f 63/1/1 59/1/1 58/1/1
f 64/1/1 59/1/1 63/1/1
f 65/1/2 66/1/2 70/1/2
f 70/1/2 66/1/2 71/1/2
f 67/1/2 68/1/2 72/1/2
f 72/1/2 68/1/2 73/1/2
f 69/1/2 70/1/2 75/1/2
f 75/1/2 70/1/2 76/1/2
f 73/1/2 74/1/2 77/1/2
f 77/1/2 74/1/2 78/1/2
f 79/1/2 80/1/2 83/1/2
f 83/1/2 80/1/2 84/1/2
f 81/1/2 82/1/2 87/1/2
f 87/1/2 82/1/2 88/1/2
f 84/1/2 85/1/2 89/1/2
f 89/1/2 85/1/2 90/1/2
f 86/1/2 87/1/2 91/1/2
f 91/1/2 87/1/2 92/1/2
f 93/1/2 94/1/2 96/1/2
f 96/1/2 94/1/2 97/1/2
f 95/2/2 96/2/2 100/2/2
f 100/2/2 96/2/2 101/2/2
f 97/2/2 98/2/2 102/2/2
f 102/2/2 98/2/2 103/2/2
f 99/1/2 100/1/2 105/1/2
f 105/1/2 100/1/2 106/1/2
f 103/1/2 104/1/2 109/1/2
f 109/1/2 104/1/2 110/1/2
f 106/2/2 107/2/2 111/2/2
f 111/2/2 107/2/2 112/2/2
f 108/2/2 109/2/2 113/2/2
f 113/2/2 109/2/2 114/2/2
f 112/1/2 113/1/2 115/1/2
f 115/1/2 113/1/2 116/1/2
f 117/1/2 118/1/2 120/1/2
f 120/1/2 118/1/2 121/1/2
f 119/1/2 120/1/2 123/1/2
f 120/2/2 121/2/2 124/2/2
f 123/1/2 120/1/2 124/1/2
f 121/1/2 122/1/2 125/1/2
f 124/2/2 121/2/2 125/2/2
f 125/1/2 122/1/2 126/1/2
f 124/1/2 125/1/2 127/1/2
f 127/1/2 125/1/2 128/1/2
f 132/1/3 130/1/3 129/1/3
f 133/1/3 130/1/3 132/1/3
f 135/1/3 132/1/3 131/1/3
f 136/2/3 133/2/3 132/2/3
f 136/1/3 132/1/3 135/1/3
f 137/1/3 134/1/3 133/1/3
f 137/2/3 133/2/3 136/2/3
f 138/1/3 134/1/3 137/1/3
f 139/1/3 137/1/3 136/1/3
f 140/1/3 137/1/3 139/1/3
f 144/1/3 142/1/3 141/1/3
f 145/1/3 142/1/3 144/1/3
f 148/2/3 144/2/3 143/2/3
f 149/2/3 144/2/3 148/2/3
f 150/2/3 146/2/3 145/2/3
f 151/2/3 146/2/3 150/2/3
f 153/1/3 148/1/3 147/1/3
f 154/1/3 148/1/3 153/1/3
f 157/1/3 152/1/3 151/1/3
f 158/1/3 152/1/3 157/1/3
f 159/2/3 155/2/3 154/2/3
f 160/2/3 155/2/3 159/2/3
f 161/2/3 157/2/3 156/2/3
f 162/2/3 157/2/3 161/2/3
f 163/1/3 161/1/3 160/1/3
f 164/1/3 161/1/3 163/1/3
f 170/1/3 166/1/3 165/1/3
f 171/1/3 166/1/3 170/1/3
f 172/1/3 168/1/3 167/1/3
f 173/1/3 168/1/3 172/1/3
f 175/1/3 170/1/3 169/1/3
f 176/1/3 170/1/3 175/1/3
f 177/1/3 174/1/3 173/1/3
f 178/1/3 174/1/3 177/1/3
f 183/1/3 180/1/3 179/1/3
f 184/1/3 180/1/3 183/1/3
f 187/1/3 182/1/3 181/1/3
f 188/1/3 182/1/3 187/1/3
f 189/1/3 185/1/3 184/1/3
f 190/1/3 185/1/3 189/1/3
f 191/1/3 187/1/3 186/1/3
f 192/1/3 187/1/3 191/1/3
f 193/1/4 194/1/4 198/1/4
f 198/1/4 194/1/4 199/1/4
f 195/1/4 196/1/4 200/1/4
f 200/1/4 196/1/4 201/1/4
f 197/1/4 198/1/4 203/1/4
f 203/1/4 198/1/4 204/1/4
f 201/1/4 202/1/4 205/1/4
f 205/1/4 202/1/4 206/1/4
f 207/1/4 208/1/4 211/1/4
f 211/1/4 208/1/4 212/1/4
f 209/1/4 210/1/4 215/1/4
f 215/1/4 210/1/4 216/1/4
f 212/1/4 213/1/4 217/1/4
f 217/1/4 213/1/4 218/1/4
f 214/1/4 215/1/4 219/1/4
f 219/1/4 215/1/4 220/1/4
f 221/1/4 222/1/4 224/1/4
f 224/1/4 222/1/4 225/1/4
f 223/2/4 224/2/4 228/2/4
f 228/2/4 224/2/4 229/2/4
f 225/2/4 226/2/4 230/2/4
f 230/2/4 226/2/4 231/2/4
f 227/1/4 228/1/4 233/1/4
f 233/1/4 228/1/4 234/1/4
f 231/1/4 232/1/4 237/1/4
f 237/1/4 232/1/4 238/1/4
f 234/2/4 235/2/4 239/2/4
f 239/2/4 235/2/4 240/2/4
f 236/2/4 237/2/4 241/2/4
f 241/2/4 237/2/4 242/2/4
f 240/1/4 241/1/4 243/1/4
f 243/1/4 241/1/4 244/1/4
f 245/1/4 246/1/4 248/1/4
f 248/1/4 246/1/4 249/1/4
f 247/1/4 248/1/4 251/1/4
f 248/2/4 249/2/4 252/2/4
f 251/1/4 248/1/4 252/1/4
f 249/1/4 250/1/4 253/1/4
f 252/2/4 249/2/4 253/2/4
f 253/1/4 250/1/4 254/1/4
f 252/1/4 253/1/4 255/1/4
f 255/1/4 253/1/4 256/1/4
f 260/1/5 258/1/5 257/1/5
f 261/1/5 258/1/5 260/1/5
f 263/1/5 260/1/5 259/1/5
f 264/2/5 261/2/5 260/2/5
f 264/1/5 260/1/5 263/1/5
f 265/1/5 262/1/5 261/1/5
f 265/2/5 261/2/5 264/2/5
f 266/1/5 262/1/5 265/1/5
f 267/1/5 265/1/5 264/1/5
f 268/1/5 265/1/5 267/1/5
f 272/1/5 270/1/5 269/1/5
f 273/1/5 270/1/5 272/1/5
f 276/2/5 272/2/5 271/2/5
f 277/2/5 272/2/5 276/2/5
f 278/2/5 274/2/5 273/2/5
f 279/2/5 274/2/5 278/2/5
f 281/1/5 276/1/5 275/1/5
f 282/1/5 276/1/5 281/1/5
f 285/1/5 280/1/5 279/1/5
f 286/1/5 280/1/5 285/1/5
f 287/2/5 283/2/5 282/2/5
f 288/2/5 283/2/5 287/2/5
f 289/2/5 285/2/5 284/2/5
f 290/2/5 285/2/5 289/2/5
f 291/1/5 289/1/5 288/1/5
f 292/1/5 289/1/5 291/1/5
f 298/1/5 294/1/5 293/1/5
f 299/1/5 294/1/5 298/1/5
f 300/1/5 296/1/5 295/1/5
f 301/1/5 296/1/5 300/1/5
f 303/1/5 298/1/5 297/1/5
f 304/1/5 298/1/5 303/1/5
f 305/1/5 302/1/5 301/1/5
f 306/1/5 302/1/5 305/1/5
f 311/1/5 308/1/5 307/1/5
f 312/1/5 308/1/5 311/1/5
f 315/1/5 310/1/5 309/1/5
f 316/1/5 310/1/5 315/1/5
f 317/1/5 313/1/5 312/1/5
f 318/1/5 313/1/5 317/1/5
f 319/1/5 315/1/5 314/1/5
f 320/1/5 315/1/5 319/1/5
f 321/1/6 322/1/6 326/1/6
f 326/1/6 322/1/6 327/1/6
f 323/1/6 324/1/6 328/1/6
f 328/1/6 324/1/6 329/1/6
f 325/1/6 326/1/6 331/1/6
f 331/1/6 326/1/6 332/1/6
f 329/1/6 330/1/6 333/1/6
f 333/1/6 330/1/6 334/1/6
f 335/1/6 336/1/6 339/1/6
f 339/1/6 336/1/6 340/1/6
f 337/1/6 338/1/6 343/1/6
f 343/1/6 338/1/6 344/1/6
f 340/1/6 341/1/6 345/1/6
f 345/1/6 341/1/6 346/1/6
f 342/1/6 343/1/6 347/1/6
f 347/1/6 343/1/6 348/1/6
f 349/1/6 350/1/6 352/1/6
f 352/1/6 350/1/6 353/1/6
f 351/2/6 352/2/6 356/2/6
f 356/2/6 352/2/6 357/2/6
f 353/2/6 354/2/6 358/2/6
f 358/2/6 354/2/6 359/2/6
f 355/1/6 356/1/6 361/1/6
f 361/1/6 356/1/6 362/1/6
f 359/1/6 360/1/6 365/1/6
f 365/1/6 360/1/6 366/1/6
f 362/2/6 363/2/6 367/2/6
f 367/2/6 363/2/6 368/2/6
f 364/2/6 365/2/6 369/2/6
f 369/2/6 365/2/6 370/2/6
f 368/1/6 369/1/6 371/1/6
f 371/1/6 369/1/6 372/1/6
f 373/1/6 374/1/6 376/1/6
f 376/1/6 374/1/6 377/1/6
f 375/1/6 376/1/6 379/1/6
f 376/2/6 377/2/6 380/2/6
f 379/1/6 376/1/6 380/1/6
f 377/1/6 378/1/6 381/1/6
f 380/2/6 377/2/6 381/2/6
f 381/1/6 378/1/6 382/1/6
f 380/1/6 381/1/6 383/1/6
f 383/1/6 381/1/6 384/1/6
