# MagicaVoxel @ Ephtracy

# group
o 

# material
mtllib projectile1.mtl
usemtl palette

# normals
vn -1 0 0
vn 1 0 0
vn 0 0 1
vn 0 0 -1
vn 0 -1 0
vn 0 1 0

# texcoords
vt 0.474609 0.5
vt 0.482422 0.5
vt 0.986328 0.5

# verts
v -0.4 0.1 0.1
v -0.4 0.1 0
v -0.4 0.2 0.1
v -0.4 0.2 0
v -0.3 0 0.1
v -0.3 0 0
v -0.3 0.1 0.2
v -0.3 0.1 0.1
v -0.3 0.1 0
v -0.3 0.1 -0.1
v -0.3 0.2 0.2
v -0.3 0.2 0.1
v -0.3 0.2 0
v -0.3 0.2 -0.1
v -0.3 0.3 0.1
v -0.3 0.3 0
v 0 0 0.1
v 0 0 0
v 0 0.1 0.1
v 0 0.1 0
v 0 0.1 -0.1
v 0 0.2 0
v 0 0.2 -0.1
v 0.1 0.2 0.1
v 0.1 0.2 0
v 0.1 0.3 0.1
v 0.1 0.3 0
v 0.2 0.1 0.2
v 0.2 0.1 0.1
v 0.2 0.2 0.2
v 0.2 0.2 0.1
v -0.1 0 0.1
v -0.1 0 0
v -0.1 0.1 0.1
v -0.1 0.1 0
v -0.1 0.1 -0.1
v -0.1 0.2 0.1
v -0.1 0.2 0
v -0.1 0.2 -0.1
v 0 0.2 0.1
v 0 0.2 0
v 0 0.3 0.1
v 0 0.3 0
v 0.1 0.1 0.2
v 0.1 0.1 0.1
v 0.1 0.2 0.2
v 0.1 0.2 0.1
v 0.2 0.1 0
v 0.2 0.1 -0.1
v 0.2 0.2 0.1
v 0.2 0.2 0
v 0.2 0.2 -0.1
v 0.2 0.3 0.1
v 0.2 0.3 0
v 0.3 0 0.1
v 0.3 0 0
v 0.3 0.1 0.2
v 0.3 0.1 0.1
v 0.3 0.1 0
v 0.3 0.2 0.2
v 0.3 0.2 0.1
v -0.3 0.1 0.2
v -0.3 0.2 0.2
v -0.2 0.1 0.2
v -0.2 0.2 0.2
v -0.1 0.1 0.2
v -0.1 0.2 0.2
v 0.1 0.1 0.2
v 0.1 0.2 0.2
v 0.2 0.1 0.2
v 0.2 0.2 0.2
v 0.3 0.1 0.2
v 0.3 0.2 0.2
v -0.4 0.1 0.1
v -0.4 0.2 0.1
v -0.3 0 0.1
v -0.3 0.1 0.1
v -0.3 0.2 0.1
v -0.3 0.3 0.1
v -0.2 0 0.1
v -0.2 0.1 0.1
v -0.2 0.2 0.1
v -0.2 0.3 0.1
v -0.1 0 0.1
v -0.1 0.1 0.1
v -0.1 0.2 0.1
v -0.1 0.3 0.1
v 0 0 0.1
v 0 0.1 0.1
v 0 0.2 0.1
v 0 0.3 0.1
v 0.1 0 0.1
v 0.1 0.1 0.1
v 0.1 0.2 0.1
v 0.1 0.3 0.1
v 0.2 0 0.1
v 0.2 0.1 0.1
v 0.2 0.2 0.1
v 0.2 0.3 0.1
v 0.3 0 0.1
v 0.3 0.1 0.1
v 0 0.1 0
v 0 0.2 0
v 0.1 0.1 0
v 0.1 0.2 0
v 0.2 0.1 0
v 0.2 0.2 0
v -0.1 0.1 0.1
v -0.1 0.2 0.1
v 0 0.1 0.1
v 0 0.2 0.1
v 0.1 0.1 0.1
v 0.1 0.2 0.1
v 0.2 0.1 0.1
v 0.2 0.2 0.1
v 0.3 0.1 0.1
v 0.3 0.2 0.1
v -0.4 0.1 0
v -0.4 0.2 0
v -0.3 0 0
v -0.3 0.1 0
v -0.3 0.2 0
v -0.3 0.3 0
v -0.2 0 0
v -0.2 0.1 0
v -0.2 0.2 0
v -0.2 0.3 0
v -0.1 0 0
v -0.1 0.1 0
v -0.1 0.2 0
v -0.1 0.3 0
v 0 0 0
v 0 0.1 0
v 0 0.2 0
v 0 0.3 0
v 0.1 0 0
v 0.1 0.1 0
v 0.1 0.2 0
v 0.1 0.3 0
v 0.2 0 0
v 0.2 0.1 0
v 0.2 0.2 0
v 0.2 0.3 0
v 0.3 0 0
v 0.3 0.1 0
v -0.3 0.1 -0.1
v -0.3 0.2 -0.1
v -0.2 0.1 -0.1
v -0.2 0.2 -0.1
v -0.1 0.1 -0.1
v -0.1 0.2 -0.1
v 0 0.1 -0.1
v 0 0.2 -0.1
v 0.1 0.1 -0.1
v 0.1 0.2 -0.1
v 0.2 0.1 -0.1
v 0.2 0.2 -0.1
v -0.3 0 0.1
v -0.2 0 0.1
v -0.1 0 0.1
v 0 0 0.1
v 0.1 0 0.1
v 0.2 0 0.1
v 0.3 0 0.1
v -0.3 0 0
v -0.2 0 0
v -0.1 0 0
v 0 0 0
v 0.1 0 0
v 0.2 0 0
v 0.3 0 0
v -0.3 0.1 0.2
v -0.2 0.1 0.2
v -0.1 0.1 0.2
v 0.1 0.1 0.2
v 0.2 0.1 0.2
v 0.3 0.1 0.2
v -0.4 0.1 0.1
v -0.3 0.1 0.1
v -0.2 0.1 0.1
v -0.1 0.1 0.1
v 0 0.1 0.1
v 0.1 0.1 0.1
v 0.2 0.1 0.1
v 0.3 0.1 0.1
v -0.4 0.1 0
v -0.3 0.1 0
v -0.2 0.1 0
v -0.1 0.1 0
v 0 0.1 0
v 0.1 0.1 0
v 0.2 0.1 0
v -0.3 0.1 -0.1
v -0.2 0.1 -0.1
v -0.1 0.1 -0.1
v 0 0.1 -0.1
v 0.1 0.1 -0.1
v 0.2 0.1 -0.1
v -0.1 0.2 0.1
v 0 0.2 0.1
v 0.1 0.2 0.1
v 0.2 0.2 0.1
v -0.1 0.2 0
v 0 0.2 0
v 0.1 0.2 0
v 0.2 0.2 0
v 0 0.1 0.1
v 0.1 0.1 0.1
v 0.2 0.1 0.1
v 0.3 0.1 0.1
v 0 0.1 0
v 0.1 0.1 0
v 0.2 0.1 0
v 0.3 0.1 0
v -0.3 0.2 0.2
v -0.2 0.2 0.2
v -0.1 0.2 0.2
v 0.1 0.2 0.2
v 0.2 0.2 0.2
v 0.3 0.2 0.2
v -0.4 0.2 0.1
v -0.3 0.2 0.1
v -0.2 0.2 0.1
v -0.1 0.2 0.1
v 0 0.2 0.1
v 0.1 0.2 0.1
v 0.2 0.2 0.1
v 0.3 0.2 0.1
v -0.4 0.2 0
v -0.3 0.2 0
v -0.2 0.2 0
v -0.1 0.2 0
v 0 0.2 0
v 0.1 0.2 0
v 0.2 0.2 0
v -0.3 0.2 -0.1
v -0.2 0.2 -0.1
v -0.1 0.2 -0.1
v 0 0.2 -0.1
v 0.1 0.2 -0.1
v 0.2 0.2 -0.1
v -0.3 0.3 0.1
v -0.2 0.3 0.1
v -0.1 0.3 0.1
v 0 0.3 0.1
v 0.1 0.3 0.1
v 0.2 0.3 0.1
v -0.3 0.3 0
v -0.2 0.3 0
v -0.1 0.3 0
v 0 0.3 0
v 0.1 0.3 0
v 0.2 0.3 0

# faces
f 3/3/1 2/3/1 1/3/1
f 4/3/1 2/3/1 3/3/1
f 8/3/1 6/3/1 5/3/1
f 9/3/1 6/3/1 8/3/1
f 11/3/1 8/3/1 7/3/1
f 12/3/1 8/3/1 11/3/1
f 13/3/1 10/3/1 9/3/1
f 14/3/1 10/3/1 13/3/1
f 15/3/1 13/3/1 12/3/1
f 16/3/1 13/3/1 15/3/1
f 19/1/1 18/1/1 17/1/1
f 20/1/1 18/1/1 19/1/1
f 22/2/1 21/2/1 20/2/1
f 23/2/1 21/2/1 22/2/1
f 26/2/1 25/2/1 24/2/1
f 27/2/1 25/2/1 26/2/1
f 30/2/1 29/2/1 28/2/1
f 31/2/1 29/2/1 30/2/1
f 32/2/2 33/2/2 34/2/2
f 34/2/2 33/2/2 35/2/2
f 34/3/2 35/3/2 37/3/2
f 35/2/2 36/2/2 38/2/2
f 37/3/2 35/3/2 38/3/2
f 38/2/2 36/2/2 39/2/2
f 40/1/2 41/1/2 42/1/2
f 42/1/2 41/1/2 43/1/2
f 44/1/2 45/1/2 46/1/2
f 46/1/2 45/1/2 47/1/2
f 48/1/2 49/1/2 51/1/2
f 51/1/2 49/1/2 52/1/2
f 50/2/2 51/2/2 53/2/2
f 53/2/2 51/2/2 54/2/2
f 55/1/2 56/1/2 58/1/2
f 58/1/2 56/1/2 59/1/2
f 57/2/2 58/2/2 60/2/2
f 60/2/2 58/2/2 61/2/2
f 64/3/3 63/3/3 62/3/3
f 65/3/3 63/3/3 64/3/3
f 66/2/3 65/2/3 64/2/3
f 67/2/3 65/2/3 66/2/3
f 68/1/3 67/1/3 66/1/3
f 69/1/3 67/1/3 68/1/3
f 72/2/3 71/2/3 70/2/3
f 73/2/3 71/2/3 72/2/3
f 77/3/3 75/3/3 74/3/3
f 78/3/3 75/3/3 77/3/3
f 80/3/3 77/3/3 76/3/3
f 81/3/3 77/3/3 80/3/3
f 82/3/3 79/3/3 78/3/3
f 83/3/3 79/3/3 82/3/3
f 84/2/3 81/2/3 80/2/3
f 85/2/3 81/2/3 84/2/3
f 86/2/3 83/2/3 82/2/3
f 87/2/3 83/2/3 86/2/3
f 90/1/3 87/1/3 86/1/3
f 91/1/3 87/1/3 90/1/3
f 92/1/3 89/1/3 88/1/3
f 93/1/3 89/1/3 92/1/3
f 96/2/3 93/2/3 92/2/3
f 97/2/3 93/2/3 96/2/3
f 98/2/3 95/2/3 94/2/3
f 99/2/3 95/2/3 98/2/3
f 100/1/3 97/1/3 96/1/3
f 101/1/3 97/1/3 100/1/3
f 104/2/3 103/2/3 102/2/3
f 105/2/3 103/2/3 104/2/3
f 106/1/3 105/1/3 104/1/3
f 107/1/3 105/1/3 106/1/3
f 108/1/4 109/1/4 110/1/4
f 110/1/4 109/1/4 111/1/4
f 110/1/4 111/1/4 112/1/4
f 112/1/4 111/1/4 113/1/4
f 114/2/4 115/2/4 116/2/4
f 116/2/4 115/2/4 117/2/4
f 118/3/4 119/3/4 121/3/4
f 121/3/4 119/3/4 122/3/4
f 120/3/4 121/3/4 124/3/4
f 124/3/4 121/3/4 125/3/4
f 122/3/4 123/3/4 126/3/4
f 126/3/4 123/3/4 127/3/4
f 124/2/4 125/2/4 128/2/4
f 128/2/4 125/2/4 129/2/4
f 126/2/4 127/2/4 130/2/4
f 130/2/4 127/2/4 131/2/4
f 130/1/4 131/1/4 134/1/4
f 134/1/4 131/1/4 135/1/4
f 132/1/4 133/1/4 136/1/4
f 136/1/4 133/1/4 137/1/4
f 136/2/4 137/2/4 140/2/4
f 140/2/4 137/2/4 141/2/4
f 138/2/4 139/2/4 142/2/4
f 142/2/4 139/2/4 143/2/4
f 140/1/4 141/1/4 144/1/4
f 144/1/4 141/1/4 145/1/4
f 146/3/4 147/3/4 148/3/4
f 148/3/4 147/3/4 149/3/4
f 148/2/4 149/2/4 150/2/4
f 150/2/4 149/2/4 151/2/4
f 152/2/4 153/2/4 154/2/4
f 154/2/4 153/2/4 155/2/4
f 154/1/4 155/1/4 156/1/4
f 156/1/4 155/1/4 157/1/4
f 165/3/5 159/3/5 158/3/5
f 166/2/5 160/2/5 159/2/5
f 166/3/5 159/3/5 165/3/5
f 167/2/5 160/2/5 166/2/5
f 168/1/5 162/1/5 161/1/5
f 169/2/5 163/2/5 162/2/5
f 169/1/5 162/1/5 168/1/5
f 170/1/5 164/1/5 163/1/5
f 170/2/5 163/2/5 169/2/5
f 171/1/5 164/1/5 170/1/5
f 179/3/5 173/3/5 172/3/5
f 180/2/5 174/2/5 173/2/5
f 180/3/5 173/3/5 179/3/5
f 181/1/5 175/1/5 174/1/5
f 181/2/5 174/2/5 180/2/5
f 182/1/5 175/1/5 181/1/5
f 183/1/5 175/1/5 182/1/5
f 184/2/5 177/2/5 176/2/5
f 185/2/5 177/2/5 184/2/5
f 186/3/5 179/3/5 178/3/5
f 187/3/5 179/3/5 186/3/5
f 193/3/5 188/3/5 187/3/5
f 194/2/5 189/2/5 188/2/5
f 194/3/5 188/3/5 193/3/5
f 195/2/5 189/2/5 194/2/5
f 196/2/5 191/2/5 190/2/5
f 197/1/5 192/1/5 191/1/5
f 197/2/5 191/2/5 196/2/5
f 198/1/5 192/1/5 197/1/5
f 203/1/5 200/1/5 199/1/5
f 204/1/5 200/1/5 203/1/5
f 205/2/5 202/2/5 201/2/5
f 206/2/5 202/2/5 205/2/5
f 207/1/6 208/1/6 211/1/6
f 208/2/6 209/2/6 212/2/6
f 211/1/6 208/1/6 212/1/6
f 209/1/6 210/1/6 213/1/6
f 212/2/6 209/2/6 213/2/6
f 213/1/6 210/1/6 214/1/6
f 215/3/6 216/3/6 222/3/6
f 216/2/6 217/2/6 223/2/6
f 222/3/6 216/3/6 223/3/6
f 217/1/6 218/1/6 224/1/6
f 223/2/6 217/2/6 224/2/6
f 224/1/6 218/1/6 225/1/6
f 225/1/6 218/1/6 226/1/6
f 219/2/6 220/2/6 227/2/6
f 227/2/6 220/2/6 228/2/6
f 221/3/6 222/3/6 229/3/6
f 229/3/6 222/3/6 230/3/6
f 230/3/6 231/3/6 236/3/6
f 231/2/6 232/2/6 237/2/6
f 236/3/6 231/3/6 237/3/6
f 237/2/6 232/2/6 238/2/6
f 233/2/6 234/2/6 239/2/6
f 234/1/6 235/1/6 240/1/6
f 239/2/6 234/2/6 240/2/6
f 240/1/6 235/1/6 241/1/6
f 242/3/6 243/3/6 248/3/6
f 243/2/6 244/2/6 249/2/6
f 248/3/6 243/3/6 249/3/6
f 244/1/6 245/1/6 250/1/6
f 249/2/6 244/2/6 250/2/6
f 250/1/6 245/1/6 251/1/6
f 246/2/6 247/2/6 252/2/6
f 252/2/6 247/2/6 253/2/6
