# MagicaVoxel @ Ephtracy

# group
o 

# material
mtllib edge_out_cube.mtl
usemtl palette

# normals
vn -1 0 0
vn 1 0 0
vn 0 0 1
vn 0 0 -1
vn 0 -1 0
vn 0 1 0

# texcoords
vt 0.00195312 0.5
vt 0.974609 0.5
vt 0.982422 0.5

# verts
v -0.7 -0.8 0.7
v -0.7 -0.8 0.6
v -0.7 -0.8 -0.8
v -0.7 0.7 0.7
v -0.7 0.7 0.6
v -0.7 0.7 -0.8
v -0.6 -0.7 0.8
v -0.6 -0.7 0.7
v -0.6 0.6 0.8
v -0.6 0.6 0.7
v -0.5 -0.6 0.9
v -0.5 -0.6 0.8
v -0.5 0.5 0.9
v -0.5 0.5 0.8
v -0.4 -0.7 0.8
v -0.4 -0.7 0.7
v -0.4 -0.6 0.9
v -0.4 -0.6 0.8
v -0.4 -0.4 0.8
v -0.4 -0.4 0.7
v -0.4 -0.2 0.9
v -0.4 -0.2 0.8
v -0.4 0.1 0.9
v -0.4 0.1 0.8
v -0.4 0.3 0.8
v -0.4 0.3 0.7
v -0.4 0.5 0.9
v -0.4 0.5 0.8
v -0.4 0.6 0.8
v -0.4 0.6 0.7
v -0.3 -0.4 0.8
v -0.3 -0.4 0.7
v -0.3 -0.2 0.9
v -0.3 -0.2 0.8
v -0.3 -0.2 0.7
v -0.3 0.1 0.9
v -0.3 0.1 0.8
v -0.3 0.1 0.7
v -0.3 0.3 0.8
v -0.3 0.3 0.7
v -0.2 -0.2 0.8
v -0.2 -0.2 0.7
v -0.2 0.1 0.8
v -0.2 0.1 0.7
v 0.8 -0.8 0.7
v 0.8 -0.8 -0.8
v 0.8 0.7 0.7
v 0.8 0.7 -0.8
v -0.5 -0.6 0.9
v -0.5 0.5 0.9
v -0.4 -0.6 0.9
v -0.4 -0.2 0.9
v -0.4 0.1 0.9
v -0.4 0.5 0.9
v -0.3 -0.2 0.9
v -0.3 0.1 0.9
v -0.6 -0.7 0.8
v -0.6 0.6 0.8
v -0.5 -0.6 0.8
v -0.5 0.5 0.8
v -0.4 -0.7 0.8
v -0.4 -0.6 0.8
v -0.4 -0.4 0.8
v -0.4 -0.2 0.8
v -0.4 0.1 0.8
v -0.4 0.3 0.8
v -0.4 0.5 0.8
v -0.4 0.6 0.8
v -0.3 -0.4 0.8
v -0.3 -0.2 0.8
v -0.3 0.1 0.8
v -0.3 0.3 0.8
v -0.2 -0.2 0.8
v -0.2 0.1 0.8
v -0.7 -0.8 0.7
v -0.7 0.7 0.7
v -0.6 -0.7 0.7
v -0.6 0.6 0.7
v -0.4 -0.8 0.7
v -0.4 -0.7 0.7
v -0.4 -0.4 0.7
v -0.4 0.3 0.7
v -0.4 0.6 0.7
v -0.4 0.7 0.7
v -0.3 -0.7 0.7
v -0.3 -0.5 0.7
v -0.3 -0.4 0.7
v -0.3 -0.2 0.7
v -0.3 0.1 0.7
v -0.3 0.3 0.7
v -0.3 0.4 0.7
v -0.3 0.6 0.7
v -0.2 -0.5 0.7
v -0.2 -0.3 0.7
v -0.2 -0.2 0.7
v -0.2 0.1 0.7
v -0.2 0.2 0.7
v -0.2 0.4 0.7
v -0.1 -0.3 0.7
v -0.1 -0.1 0.7
v -0.1 0 0.7
v -0.1 0.2 0.7
v 0 -0.1 0.7
v 0 0 0.7
v 0.8 -0.8 0.7
v 0.8 0.7 0.7
v -0.7 -0.8 -0.8
v -0.7 0.7 -0.8
v 0.8 -0.8 -0.8
v 0.8 0.7 -0.8
v -0.7 -0.8 0.7
v -0.4 -0.8 0.7
v 0.8 -0.8 0.7
v -0.7 -0.8 0.6
v -0.4 -0.8 0.6
v -0.7 -0.8 -0.8
v 0.8 -0.8 -0.8
v -0.6 -0.7 0.8
v -0.4 -0.7 0.8
v -0.6 -0.7 0.7
v -0.4 -0.7 0.7
v -0.5 -0.6 0.9
v -0.4 -0.6 0.9
v -0.5 -0.6 0.8
v -0.4 -0.6 0.8
v -0.4 -0.4 0.8
v -0.3 -0.4 0.8
v -0.4 -0.4 0.7
v -0.3 -0.4 0.7
v -0.4 -0.2 0.9
v -0.3 -0.2 0.9
v -0.4 -0.2 0.8
v -0.3 -0.2 0.8
v -0.2 -0.2 0.8
v -0.3 -0.2 0.7
v -0.2 -0.2 0.7
v -0.4 0.1 0.9
v -0.3 0.1 0.9
v -0.4 0.1 0.8
v -0.3 0.1 0.8
v -0.2 0.1 0.8
v -0.3 0.1 0.7
v -0.2 0.1 0.7
v -0.4 0.3 0.8
v -0.3 0.3 0.8
v -0.4 0.3 0.7
v -0.3 0.3 0.7
v -0.5 0.5 0.9
v -0.4 0.5 0.9
v -0.5 0.5 0.8
v -0.4 0.5 0.8
v -0.6 0.6 0.8
v -0.4 0.6 0.8
v -0.6 0.6 0.7
v -0.4 0.6 0.7
v -0.7 0.7 0.7
v -0.4 0.7 0.7
v 0.8 0.7 0.7
v -0.7 0.7 0.6
v -0.4 0.7 0.6
v -0.7 0.7 -0.8
v 0.8 0.7 -0.8

# faces
f 4/3/1 2/3/1 1/3/1
f 5/1/1 3/1/1 2/1/1
f 5/3/1 2/3/1 4/3/1
f 6/1/1 3/1/1 5/1/1
f 9/2/1 8/2/1 7/2/1
f 10/2/1 8/2/1 9/2/1
f 13/1/1 12/1/1 11/1/1
f 14/1/1 12/1/1 13/1/1
f 15/2/2 16/2/2 18/2/2
f 18/2/2 16/2/2 19/2/2
f 17/1/2 18/1/2 19/1/2
f 19/2/2 16/2/2 20/2/2
f 17/1/2 19/1/2 21/1/2
f 21/1/2 19/1/2 22/1/2
f 23/1/2 24/1/2 25/1/2
f 23/1/2 25/1/2 27/1/2
f 25/2/2 26/2/2 28/2/2
f 27/1/2 25/1/2 28/1/2
f 28/2/2 26/2/2 29/2/2
f 29/2/2 26/2/2 30/2/2
f 31/2/2 32/2/2 34/2/2
f 34/2/2 32/2/2 35/2/2
f 33/1/2 34/1/2 36/1/2
f 36/1/2 34/1/2 37/1/2
f 37/2/2 38/2/2 39/2/2
f 39/2/2 38/2/2 40/2/2
f 41/2/2 42/2/2 43/2/2
f 43/2/2 42/2/2 44/2/2
f 45/1/2 46/1/2 47/1/2
f 47/1/2 46/1/2 48/1/2
f 51/1/3 50/1/3 49/1/3
f 52/1/3 50/1/3 51/1/3
f 53/1/3 50/1/3 52/1/3
f 54/1/3 50/1/3 53/1/3
f 55/1/3 53/1/3 52/1/3
f 56/1/3 53/1/3 55/1/3
f 59/2/3 58/2/3 57/2/3
f 60/2/3 58/2/3 59/2/3
f 61/2/3 59/2/3 57/2/3
f 62/2/3 59/2/3 61/2/3
f 67/2/3 58/2/3 60/2/3
f 68/2/3 58/2/3 67/2/3
f 69/2/3 64/2/3 63/2/3
f 70/2/3 64/2/3 69/2/3
f 71/2/3 66/2/3 65/2/3
f 72/2/3 66/2/3 71/2/3
f 73/2/3 71/2/3 70/2/3
f 74/2/3 71/2/3 73/2/3
f 77/3/3 76/3/3 75/3/3
f 78/3/3 76/3/3 77/3/3
f 79/3/3 77/3/3 75/3/3
f 80/3/3 77/3/3 79/3/3
f 83/3/3 76/3/3 78/3/3
f 84/3/3 76/3/3 83/3/3
f 85/3/3 81/3/3 80/3/3
f 85/1/3 80/1/3 79/1/3
f 86/3/3 81/3/3 85/3/3
f 87/3/3 81/3/3 86/3/3
f 90/3/3 83/3/3 82/3/3
f 91/3/3 83/3/3 90/3/3
f 92/1/3 84/1/3 83/1/3
f 92/3/3 83/3/3 91/3/3
f 93/3/3 88/3/3 87/3/3
f 93/1/3 86/1/3 85/1/3
f 93/3/3 87/3/3 86/3/3
f 94/3/3 88/3/3 93/3/3
f 95/3/3 88/3/3 94/3/3
f 96/3/3 91/3/3 90/3/3
f 96/3/3 90/3/3 89/3/3
f 97/3/3 91/3/3 96/3/3
f 98/1/3 92/1/3 91/1/3
f 98/3/3 91/3/3 97/3/3
f 99/3/3 95/3/3 94/3/3
f 99/3/3 97/3/3 96/3/3
f 99/1/3 94/1/3 93/1/3
f 99/3/3 96/3/3 95/3/3
f 100/3/3 97/3/3 99/3/3
f 101/3/3 97/3/3 100/3/3
f 102/1/3 98/1/3 97/1/3
f 102/3/3 97/3/3 101/3/3
f 103/3/3 101/3/3 100/3/3
f 103/1/3 100/1/3 99/1/3
f 104/1/3 102/1/3 101/1/3
f 104/3/3 101/3/3 103/3/3
f 105/1/3 85/1/3 79/1/3
f 105/1/3 93/1/3 85/1/3
f 105/1/3 104/1/3 103/1/3
f 105/1/3 103/1/3 99/1/3
f 105/1/3 99/1/3 93/1/3
f 106/1/3 92/1/3 98/1/3
f 106/1/3 104/1/3 105/1/3
f 106/1/3 84/1/3 92/1/3
f 106/1/3 102/1/3 104/1/3
f 106/1/3 98/1/3 102/1/3
f 107/1/4 108/1/4 109/1/4
f 109/1/4 108/1/4 110/1/4
f 114/3/5 112/3/5 111/3/5
f 115/1/5 113/1/5 112/1/5
f 115/3/5 112/3/5 114/3/5
f 116/1/5 115/1/5 114/1/5
f 117/1/5 113/1/5 115/1/5
f 117/1/5 115/1/5 116/1/5
f 120/2/5 119/2/5 118/2/5
f 121/2/5 119/2/5 120/2/5
f 124/1/5 123/1/5 122/1/5
f 125/1/5 123/1/5 124/1/5
f 128/2/5 127/2/5 126/2/5
f 129/2/5 127/2/5 128/2/5
f 132/1/5 131/1/5 130/1/5
f 133/1/5 131/1/5 132/1/5
f 135/2/5 134/2/5 133/2/5
f 136/2/5 134/2/5 135/2/5
f 137/1/6 138/1/6 139/1/6
f 139/1/6 138/1/6 140/1/6
f 140/2/6 141/2/6 142/2/6
f 142/2/6 141/2/6 143/2/6
f 144/2/6 145/2/6 146/2/6
f 146/2/6 145/2/6 147/2/6
f 148/1/6 149/1/6 150/1/6
f 150/1/6 149/1/6 151/1/6
f 152/2/6 153/2/6 154/2/6
f 154/2/6 153/2/6 155/2/6
f 156/3/6 157/3/6 159/3/6
f 157/1/6 158/1/6 160/1/6
f 159/3/6 157/3/6 160/3/6
f 159/1/6 160/1/6 161/1/6
f 160/1/6 158/1/6 162/1/6
f 161/1/6 160/1/6 162/1/6
