# MagicaVoxel @ Ephtracy

# group
o 

# material
mtllib edge_in_cube_.mtl
usemtl palette

# normals
vn -1 0 0
vn 1 0 0
vn 0 0 1
vn 0 0 -1
vn 0 -1 0
vn 0 1 0

# texcoords
vt 0.00195312 0.5
vt 0.970703 0.5
vt 0.974609 0.5
vt 0.982422 0.5

# verts
v -0.7 -0.8 0.7
v -0.7 -0.8 0.6
v -0.7 -0.8 -0.8
v -0.7 0.7 0.7
v -0.7 0.7 0.6
v -0.7 0.7 -0.8
v -0.4 -0.7 0.7
v -0.4 -0.7 0.6
v -0.4 -0.6 0.6
v -0.4 -0.6 0.5
v -0.4 -0.4 0.7
v -0.4 -0.4 0.6
v -0.4 -0.2 0.6
v -0.4 -0.2 0.5
v -0.4 0.1 0.6
v -0.4 0.1 0.5
v -0.4 0.3 0.7
v -0.4 0.3 0.6
v -0.4 0.5 0.6
v -0.4 0.5 0.5
v -0.4 0.6 0.7
v -0.4 0.6 0.6
v -0.3 -0.4 0.7
v -0.3 -0.4 0.6
v -0.3 -0.2 0.7
v -0.3 -0.2 0.6
v -0.3 -0.2 0.5
v -0.3 0.1 0.7
v -0.3 0.1 0.6
v -0.3 0.1 0.5
v -0.3 0.3 0.7
v -0.3 0.3 0.6
v -0.2 -0.2 0.7
v -0.2 -0.2 0.6
v -0.2 0.1 0.7
v -0.2 0.1 0.6
v -0.6 -0.7 0.7
v -0.6 -0.7 0.6
v -0.6 0.6 0.7
v -0.6 0.6 0.6
v -0.5 -0.6 0.6
v -0.5 -0.6 0.5
v -0.5 0.5 0.6
v -0.5 0.5 0.5
v 0.8 -0.8 0.7
v 0.8 -0.8 -0.8
v 0.8 0.7 0.7
v 0.8 0.7 -0.8
v -0.7 -0.8 0.7
v -0.7 0.7 0.7
v -0.6 -0.7 0.7
v -0.6 0.6 0.7
v -0.4 -0.8 0.7
v -0.4 -0.7 0.7
v -0.4 -0.4 0.7
v -0.4 0.3 0.7
v -0.4 0.6 0.7
v -0.4 0.7 0.7
v -0.3 -0.7 0.7
v -0.3 -0.5 0.7
v -0.3 -0.4 0.7
v -0.3 -0.2 0.7
v -0.3 0.1 0.7
v -0.3 0.3 0.7
v -0.3 0.4 0.7
v -0.3 0.6 0.7
v -0.2 -0.5 0.7
v -0.2 -0.3 0.7
v -0.2 -0.2 0.7
v -0.2 0.1 0.7
v -0.2 0.2 0.7
v -0.2 0.4 0.7
v -0.1 -0.3 0.7
v -0.1 -0.1 0.7
v -0.1 0 0.7
v -0.1 0.2 0.7
v 0 -0.1 0.7
v 0 0 0.7
v 0.8 -0.8 0.7
v 0.8 0.7 0.7
v -0.6 -0.7 0.6
v -0.6 0.6 0.6
v -0.5 -0.6 0.6
v -0.5 0.5 0.6
v -0.4 -0.7 0.6
v -0.4 -0.6 0.6
v -0.4 -0.4 0.6
v -0.4 -0.2 0.6
v -0.4 0.1 0.6
v -0.4 0.3 0.6
v -0.4 0.5 0.6
v -0.4 0.6 0.6
v -0.3 -0.4 0.6
v -0.3 -0.2 0.6
v -0.3 0.1 0.6
v -0.3 0.3 0.6
v -0.2 -0.2 0.6
v -0.2 0.1 0.6
v -0.5 -0.6 0.5
v -0.5 0.5 0.5
v -0.4 -0.6 0.5
v -0.4 -0.2 0.5
v -0.4 0.1 0.5
v -0.4 0.5 0.5
v -0.3 -0.2 0.5
v -0.3 0.1 0.5
v -0.7 -0.8 -0.8
v -0.7 0.7 -0.8
v 0.8 -0.8 -0.8
v 0.8 0.7 -0.8
v -0.7 -0.8 0.7
v -0.4 -0.8 0.7
v 0.8 -0.8 0.7
v -0.7 -0.8 0.6
v -0.4 -0.8 0.6
v -0.7 -0.8 -0.8
v 0.8 -0.8 -0.8
v -0.3 0.1 0.7
v -0.2 0.1 0.7
v -0.4 0.1 0.6
v -0.3 0.1 0.6
v -0.2 0.1 0.6
v -0.4 0.1 0.5
v -0.3 0.1 0.5
v -0.4 0.3 0.7
v -0.3 0.3 0.7
v -0.4 0.3 0.6
v -0.3 0.3 0.6
v -0.5 0.5 0.6
v -0.4 0.5 0.6
v -0.5 0.5 0.5
v -0.4 0.5 0.5
v -0.6 0.6 0.7
v -0.4 0.6 0.7
v -0.6 0.6 0.6
v -0.4 0.6 0.6
v -0.6 -0.7 0.7
v -0.4 -0.7 0.7
v -0.6 -0.7 0.6
v -0.4 -0.7 0.6
v -0.5 -0.6 0.6
v -0.4 -0.6 0.6
v -0.5 -0.6 0.5
v -0.4 -0.6 0.5
v -0.4 -0.4 0.7
v -0.3 -0.4 0.7
v -0.4 -0.4 0.6
v -0.3 -0.4 0.6
v -0.3 -0.2 0.7
v -0.2 -0.2 0.7
v -0.4 -0.2 0.6
v -0.3 -0.2 0.6
v -0.2 -0.2 0.6
v -0.4 -0.2 0.5
v -0.3 -0.2 0.5
v -0.7 0.7 0.7
v -0.4 0.7 0.7
v 0.8 0.7 0.7
v -0.7 0.7 0.6
v -0.4 0.7 0.6
v -0.7 0.7 -0.8
v 0.8 0.7 -0.8

# faces
f 4/2/1 2/2/1 1/2/1
f 5/1/1 3/1/1 2/1/1
f 5/2/1 2/2/1 4/2/1
f 6/1/1 3/1/1 5/1/1
f 9/2/1 8/2/1 7/2/1
f 11/2/1 9/2/1 7/2/1
f 12/3/1 10/3/1 9/3/1
f 12/2/1 9/2/1 11/2/1
f 13/3/1 10/3/1 12/3/1
f 14/3/1 10/3/1 13/3/1
f 18/3/1 16/3/1 15/3/1
f 19/3/1 16/3/1 18/3/1
f 19/2/1 18/2/1 17/2/1
f 20/3/1 16/3/1 19/3/1
f 21/2/1 19/2/1 17/2/1
f 22/2/1 19/2/1 21/2/1
f 25/2/1 24/2/1 23/2/1
f 26/2/1 24/2/1 25/2/1
f 29/3/1 27/3/1 26/3/1
f 30/3/1 27/3/1 29/3/1
f 31/2/1 29/2/1 28/2/1
f 32/2/1 29/2/1 31/2/1
f 35/2/1 34/2/1 33/2/1
f 36/2/1 34/2/1 35/2/1
f 37/2/2 38/2/2 39/2/2
f 39/2/2 38/2/2 40/2/2
f 41/3/2 42/3/2 43/3/2
f 43/3/2 42/3/2 44/3/2
f 45/1/2 46/1/2 47/1/2
f 47/1/2 46/1/2 48/1/2
f 51/2/3 50/2/3 49/2/3
f 52/2/3 50/2/3 51/2/3
f 53/2/3 51/2/3 49/2/3
f 54/2/3 51/2/3 53/2/3
f 57/2/3 50/2/3 52/2/3
f 58/2/3 50/2/3 57/2/3
f 59/2/3 55/2/3 54/2/3
f 59/1/3 54/1/3 53/1/3
f 60/2/3 55/2/3 59/2/3
f 61/2/3 55/2/3 60/2/3
f 64/2/3 57/2/3 56/2/3
f 65/2/3 57/2/3 64/2/3
f 66/1/3 58/1/3 57/1/3
f 66/2/3 57/2/3 65/2/3
f 67/2/3 62/2/3 61/2/3
f 67/1/3 60/1/3 59/1/3
f 67/2/3 61/2/3 60/2/3
f 68/2/3 62/2/3 67/2/3
f 69/2/3 62/2/3 68/2/3
f 70/2/3 65/2/3 64/2/3
f 70/2/3 64/2/3 63/2/3
f 71/2/3 65/2/3 70/2/3
f 72/1/3 66/1/3 65/1/3
f 72/2/3 65/2/3 71/2/3
f 73/2/3 69/2/3 68/2/3
f 73/2/3 71/2/3 70/2/3
f 73/1/3 68/1/3 67/1/3
f 73/2/3 70/2/3 69/2/3
f 74/2/3 71/2/3 73/2/3
f 75/2/3 71/2/3 74/2/3
f 76/1/3 72/1/3 71/1/3
f 76/2/3 71/2/3 75/2/3
f 77/2/3 75/2/3 74/2/3
f 77/1/3 74/1/3 73/1/3
f 78/1/3 76/1/3 75/1/3
f 78/2/3 75/2/3 77/2/3
f 79/1/3 59/1/3 53/1/3
f 79/1/3 67/1/3 59/1/3
f 79/1/3 78/1/3 77/1/3
f 79/1/3 77/1/3 73/1/3
f 79/1/3 73/1/3 67/1/3
f 80/1/3 66/1/3 72/1/3
f 80/1/3 78/1/3 79/1/3
f 80/1/3 58/1/3 66/1/3
f 80/1/3 76/1/3 78/1/3
f 80/1/3 72/1/3 76/1/3
f 83/3/3 82/3/3 81/3/3
f 84/3/3 82/3/3 83/3/3
f 85/3/3 83/3/3 81/3/3
f 86/3/3 83/3/3 85/3/3
f 91/3/3 82/3/3 84/3/3
f 92/3/3 82/3/3 91/3/3
f 93/3/3 88/3/3 87/3/3
f 94/3/3 88/3/3 93/3/3
f 95/3/3 90/3/3 89/3/3
f 96/3/3 90/3/3 95/3/3
f 97/3/3 95/3/3 94/3/3
f 98/3/3 95/3/3 97/3/3
f 101/4/3 100/4/3 99/4/3
f 102/4/3 100/4/3 101/4/3
f 103/4/3 100/4/3 102/4/3
f 104/4/3 100/4/3 103/4/3
f 105/4/3 103/4/3 102/4/3
f 106/4/3 103/4/3 105/4/3
f 107/1/4 108/1/4 109/1/4
f 109/1/4 108/1/4 110/1/4
f 114/2/5 112/2/5 111/2/5
f 115/1/5 113/1/5 112/1/5
f 115/2/5 112/2/5 114/2/5
f 116/1/5 115/1/5 114/1/5
f 117/1/5 113/1/5 115/1/5
f 117/1/5 115/1/5 116/1/5
f 121/2/5 119/2/5 118/2/5
f 122/2/5 119/2/5 121/2/5
f 123/3/5 121/3/5 120/3/5
f 124/3/5 121/3/5 123/3/5
f 127/2/5 126/2/5 125/2/5
f 128/2/5 126/2/5 127/2/5
f 131/3/5 130/3/5 129/3/5
f 132/3/5 130/3/5 131/3/5
f 135/2/5 134/2/5 133/2/5
f 136/2/5 134/2/5 135/2/5
f 137/2/6 138/2/6 139/2/6
f 139/2/6 138/2/6 140/2/6
f 141/3/6 142/3/6 143/3/6
f 143/3/6 142/3/6 144/3/6
f 145/2/6 146/2/6 147/2/6
f 147/2/6 146/2/6 148/2/6
f 149/2/6 150/2/6 152/2/6
f 152/2/6 150/2/6 153/2/6
f 151/3/6 152/3/6 154/3/6
f 154/3/6 152/3/6 155/3/6
f 156/2/6 157/2/6 159/2/6
f 157/1/6 158/1/6 160/1/6
f 159/2/6 157/2/6 160/2/6
f 159/1/6 160/1/6 161/1/6
f 160/1/6 158/1/6 162/1/6
f 161/1/6 160/1/6 162/1/6
